<svg width="134" height="134" viewBox="0 0 134 134" fill="none" xmlns="http://www.w3.org/2000/svg">
<path d="M66.6667 0.333496C53.4813 0.333496 40.592 4.24343 29.6287 11.5689C18.6654 18.8943 10.1206 29.3062 5.07473 41.4879C0.0288854 53.6697 -1.29134 67.0741 1.28101 80.0062C3.85336 92.9383 10.2027 104.817 19.5262 114.141C28.8498 123.464 40.7286 129.814 53.6607 132.386C66.5928 134.958 79.9972 133.638 92.1789 128.592C104.361 123.546 114.773 115.001 122.098 104.038C129.423 93.0749 133.333 80.1856 133.333 67.0002C133.333 49.3191 126.31 32.3621 113.807 19.8597C101.305 7.35729 84.3478 0.333496 66.6667 0.333496ZM110.208 44.6252L55.4584 99.3335L23.125 67.0002C22.02 65.8951 21.3991 64.3963 21.3991 62.8335C21.3991 61.2707 22.02 59.7719 23.125 58.6668C24.2301 57.5618 25.7289 56.9409 27.2917 56.9409C28.8545 56.9409 30.3533 57.5618 31.4584 58.6668L55.5417 82.7502L101.958 36.3752C102.506 35.828 103.155 35.3939 103.87 35.0978C104.585 34.8017 105.351 34.6493 106.125 34.6493C106.899 34.6493 107.665 34.8017 108.38 35.0978C109.095 35.3939 109.745 35.828 110.292 36.3752C110.839 36.9223 111.273 37.5719 111.569 38.2868C111.865 39.0018 112.018 39.768 112.018 40.5418C112.018 41.3157 111.865 42.0819 111.569 42.7968C111.273 43.5117 110.839 44.1613 110.292 44.7085L110.208 44.6252Z" fill="#2C8C51"/>
</svg>
