<svg width="793" height="793" viewBox="0 0 793 793" fill="none" xmlns="http://www.w3.org/2000/svg">
<circle cx="396.5" cy="396.5" r="396" stroke="white"/>
<circle cx="396.5" cy="396.5" r="338" stroke="white"/>
<circle cx="396.5" cy="396.5" r="278" stroke="white"/>
<circle cx="396.5" cy="396.5" r="219" stroke="white"/>
<mask id="path-5-inside-1_102_331" fill="white">
<path d="M611.572 391.206C614.333 391.134 616.635 393.313 616.645 396.075C616.741 423.749 611.61 451.209 601.505 477.005C590.793 504.355 574.707 529.279 554.2 550.307C533.692 571.335 509.178 588.04 482.106 599.434C455.033 610.828 425.952 616.68 396.579 616.646C367.207 616.611 338.139 610.69 311.094 599.233C284.049 587.775 259.574 571.013 239.115 549.937C218.657 528.861 202.631 503.898 191.982 476.524C181.939 450.704 176.872 423.232 177.033 395.558C177.05 392.796 179.357 390.622 182.117 390.701L188.505 390.884C191.266 390.963 193.433 393.265 193.422 396.026C193.32 421.511 198.008 446.803 207.258 470.582C217.112 495.915 231.944 519.016 250.876 538.521C269.809 558.025 292.459 573.537 317.488 584.141C342.516 594.744 369.417 600.223 396.599 600.255C423.781 600.287 450.694 594.871 475.747 584.327C500.801 573.782 523.487 558.323 542.466 538.863C561.444 519.404 576.33 496.337 586.244 471.027C595.549 447.27 600.297 421.989 600.255 396.504C600.251 393.743 602.423 391.446 605.184 391.374L611.572 391.206Z"/>
</mask>
<path d="M611.572 391.206C614.333 391.134 616.635 393.313 616.645 396.075C616.741 423.749 611.61 451.209 601.505 477.005C590.793 504.355 574.707 529.279 554.2 550.307C533.692 571.335 509.178 588.04 482.106 599.434C455.033 610.828 425.952 616.68 396.579 616.646C367.207 616.611 338.139 610.69 311.094 599.233C284.049 587.775 259.574 571.013 239.115 549.937C218.657 528.861 202.631 503.898 191.982 476.524C181.939 450.704 176.872 423.232 177.033 395.558C177.05 392.796 179.357 390.622 182.117 390.701L188.505 390.884C191.266 390.963 193.433 393.265 193.422 396.026C193.32 421.511 198.008 446.803 207.258 470.582C217.112 495.915 231.944 519.016 250.876 538.521C269.809 558.025 292.459 573.537 317.488 584.141C342.516 594.744 369.417 600.223 396.599 600.255C423.781 600.287 450.694 594.871 475.747 584.327C500.801 573.782 523.487 558.323 542.466 538.863C561.444 519.404 576.33 496.337 586.244 471.027C595.549 447.27 600.297 421.989 600.255 396.504C600.251 393.743 602.423 391.446 605.184 391.374L611.572 391.206Z" stroke="white" stroke-width="2" stroke-linejoin="round" mask="url(#path-5-inside-1_102_331)"/>
</svg>
